<svg width="1128" height="191" viewBox="0 0 1128 191" fill="none" xmlns="http://www.w3.org/2000/svg">
<g clip-path="url(#clip0_235_2)">
<rect width="1128" height="191" fill="white"/>
<g clip-path="url(#clip1_235_2)">
<rect width="1128" height="192" fill="#4CB380"/>
<g style="mix-blend-mode:soft-light">
<path d="M635.928 9.84105C644.85 6.06557 654.056 4.12293 663.545 4.12293C679.392 4.12293 690.484 10.1123 690.484 21.4255V23.8656L675.543 25.1966C652.679 27.193 625.062 31.1859 625.062 61.7981C625.062 79.7661 639.097 95.0722 661.508 95.0722C676.449 95.0722 686.409 87.5301 691.616 74.6641L691.842 93.2976H719.234V20.76C719.234 -8.07757 696.596 -20.2781 670.11 -20.2781C659.018 -20.2781 647.02 -18.5035 635.928 -12.9578M635.928 9.84105V-12.9578M635.928 9.84105C633.569 10.8392 631.229 11.9655 628.91 13.2179L635.928 -12.9578M557.485 -55.2007H528.282V93.2976H557.485V-55.2007ZM282.728 -18.2816H313.741V4.78842H282.728V52.2596C282.728 64.4601 288.84 69.3402 301.517 69.3402C305.365 69.3402 310.572 68.2311 314.647 66.2347V89.3048C310.119 92.854 300.838 94.6286 292.915 94.6286C266.655 94.6286 253.525 80.8753 253.525 58.4707V4.78842H238.132L238.132 -18.2816H253.525L260.795 -42.4608H282.728V-18.2816ZM224.572 11.4432L230.911 -12.736C223.44 -18.0598 211.216 -20.9436 199.444 -20.9436C168.884 -20.9436 151 -6.52479 151 14.327C151 31.4077 160.508 39.6154 175.449 45.3829L194.011 52.4814C202.614 55.8088 205.557 57.5834 205.557 62.4636C205.557 68.8966 199.897 72.4458 188.805 72.4458C178.618 72.4458 166.167 70.0057 153.49 60.9108V86.6428C160.734 93.2976 175.901 96.4032 188.578 96.4032C216.196 96.4032 234.08 82.8717 234.08 60.4671C234.08 44.2737 225.025 36.288 208.5 29.8549L190.389 22.7564C181.787 19.429 179.75 17.2108 179.75 12.7742C179.75 6.78487 185.409 3.23563 197.181 3.23563C205.33 3.23563 215.97 5.45389 224.572 11.4432ZM381.944 10.1123C386.925 10.1123 392.131 11.4432 395.98 13.6615L401.413 -14.9542C398.243 -18.2816 393.037 -20.0563 387.83 -20.0563C371.531 -20.0563 362.023 -8.78964 357.043 5.85097L357.043 -18.2816H329.425V93.2976H358.628V38.0626C358.628 17.2108 368.135 10.1123 381.944 10.1123ZM469.842 96.1814C482.066 96.1814 497.912 93.2976 506.062 87.9738V62.9073C498.592 68.2311 485.688 72.0022 473.011 72.0022C449.468 72.0022 436.565 63.3509 432.943 47.6011H510.363C511.042 44.0519 511.269 38.5062 511.269 34.5133C511.269 4.56661 492.479 -21.1654 460.334 -21.1654C423.435 -21.1654 402.608 5.89756 402.608 37.1752C402.608 71.3367 425.019 96.1814 469.842 96.1814ZM459.202 2.79197C472.332 2.79197 480.934 12.5524 482.745 27.6367H432.49C434.98 12.3306 444.488 2.79197 459.202 2.79197ZM580.181 -55.2007H609.383V93.2976H580.181V-55.2007ZM757.505 222.066C751.166 235.819 737.357 245.357 718.568 245.357C686.649 245.357 666.501 220.069 666.501 187.017C666.501 154.186 686.649 128.898 719.021 128.898C736.678 128.898 750.261 137.549 756.825 150.415V83.6451H786.028V242.917H757.731L757.505 222.066ZM726.491 153.521C706.57 153.521 695.93 168.605 695.93 187.017C695.93 205.428 706.57 220.735 726.491 220.735C746.412 220.735 756.825 205.428 756.825 187.017C756.825 168.605 746.412 153.521 726.491 153.521ZM536.295 131.338H505.281V107.159L483.348 107.159L476.079 131.338H460.334L460.685 154.408H476.079V208.09C476.079 230.495 489.208 244.248 515.468 244.248C523.391 244.248 532.673 242.474 537.2 238.924V215.854C533.125 217.851 527.919 218.96 524.07 218.96C511.393 218.96 505.281 214.08 505.281 201.879V154.408H536.295V131.338ZM449.829 136.884L443.491 161.063C434.888 155.074 424.249 152.855 416.099 152.855C404.328 152.855 398.668 156.405 398.668 162.394C398.668 166.83 400.706 169.049 409.308 172.376L427.418 179.475C443.943 185.908 452.998 193.893 452.998 210.087C452.998 232.491 435.115 246.023 407.497 246.023C394.82 246.023 379.653 242.917 372.408 236.262V210.53C385.086 219.625 397.536 222.066 407.723 222.066C418.816 222.066 424.475 218.516 424.475 212.083C424.475 207.203 421.532 205.428 412.93 202.101L394.367 195.003C379.426 189.235 369.918 181.027 369.918 163.947C369.918 143.095 387.802 128.676 418.363 128.676C430.134 128.676 442.359 131.56 449.829 136.884ZM650.678 131.338V242.917H622.834L622.608 224.506C617.401 236.041 606.082 244.914 589.104 244.914C564.882 244.914 550.62 228.942 550.62 204.763V131.338H579.822V197.886C579.822 210.752 586.161 219.404 599.517 219.404C613.326 219.404 621.476 211.196 621.476 193.672V131.338H650.678ZM808.756 131.338V242.917H837.958V131.338H808.756ZM808.53 113.37V83.6451H838.185V113.37H808.53ZM914.985 127.789C953.469 127.789 976.106 153.743 976.106 187.017C976.106 220.513 953.469 246.467 914.985 246.467C876.501 246.467 853.863 220.513 853.863 187.017C853.863 153.743 876.501 127.789 914.985 127.789ZM914.985 152.634C894.158 152.634 883.292 168.605 883.292 187.017C883.292 205.428 894.158 221.622 914.985 221.622C935.811 221.622 946.677 205.428 946.677 187.017C946.677 168.605 935.811 152.634 914.985 152.634ZM752.962 -31.0545H836.107V51.1473H809.4V14.019L762.404 60.4823L743.52 41.8122L790.516 -4.65103H752.962V-31.0545ZM671.016 72.4458C659.471 72.4458 654.264 66.2347 654.264 58.4707C654.264 49.3758 660.829 45.3829 674.411 44.0519L690.484 42.4991V50.2631C690.484 64.0164 681.429 72.4458 671.016 72.4458Z" stroke="white" stroke-opacity="0.5" stroke-width="0.968434" stroke-dasharray="9.68 2.42"/>
</g>
<g filter="url(#filter0_f_235_2)">
<rect x="459" y="49.8744" width="210.634" height="92.0013" fill="#4CB380"/>
</g>
<path d="M556.951 66.3377H562.675V95.4177H556.951V66.3377Z" fill="white"/>
<path d="M514.899 73.5675H508.82V68.8325H504.521L503.096 73.5675H500.079V78.0852H503.096V88.5976C503.096 92.985 505.669 95.6783 510.817 95.6783C512.37 95.6783 514.189 95.3308 515.076 94.6357V90.118C514.278 90.509 513.257 90.7262 512.503 90.7262C510.018 90.7262 508.82 89.7705 508.82 87.3813V78.0852H514.899V73.5675Z" fill="white"/>
<path d="M498.663 74.6534L497.421 79.3884C495.735 78.2155 493.649 77.7811 492.052 77.7811C489.745 77.7811 488.635 78.4761 488.635 79.649C488.635 80.5178 489.035 80.9522 490.721 81.6038L494.27 82.9939C497.51 84.2536 499.284 85.8175 499.284 88.9886C499.284 93.376 495.779 96.0258 490.366 96.0258C487.881 96.0258 484.908 95.4176 483.488 94.1145V89.0754C485.973 90.8565 488.413 91.3343 490.41 91.3343C492.584 91.3343 493.694 90.6393 493.694 89.3795C493.694 88.4238 493.117 88.0763 491.431 87.4247L487.792 86.0347C484.864 84.9052 483 83.298 483 79.9531C483 75.8698 486.505 73.0462 492.496 73.0462C494.803 73.0462 497.199 73.6109 498.663 74.6534Z" fill="white"/>
<path d="M531.018 79.8228C530.264 79.3884 529.243 79.1277 528.267 79.1277C525.561 79.1277 523.697 80.5178 523.697 84.6011V95.4177H517.973V73.5675H523.386L523.386 78.2933C524.363 75.4262 526.226 73.2199 529.421 73.2199C530.441 73.2199 531.462 73.5675 532.083 74.219L531.018 79.8228Z" fill="white"/>
<path fill-rule="evenodd" clip-rule="evenodd" d="M552.595 94.3751C550.998 95.4176 547.892 95.9824 545.496 95.9824C536.71 95.9824 532.318 91.1171 532.318 84.4274C532.318 78.3024 536.4 73.0027 543.632 73.0027C549.933 73.0027 553.616 78.0417 553.616 83.9061C553.616 84.688 553.572 85.774 553.439 86.4691H538.263C538.973 89.5533 541.503 91.2474 546.117 91.2474C548.602 91.2474 551.131 90.509 552.595 89.4664V94.3751ZM548.025 82.5595C547.67 79.6056 545.984 77.6942 543.411 77.6942C540.526 77.6942 538.663 79.5621 538.175 82.5595H548.025Z" fill="white"/>
<path d="M572.847 66.3377H567.123V95.4177H572.847V66.3377Z" fill="white"/>
<path fill-rule="evenodd" clip-rule="evenodd" d="M594.249 125.195C597.931 125.195 600.638 123.327 601.881 120.634L601.925 124.717H607.471V93.5274H601.747V106.603C600.461 104.083 597.798 102.389 594.337 102.389C587.992 102.389 584.043 107.341 584.043 113.77C584.043 120.243 587.992 125.195 594.249 125.195ZM589.811 113.77C589.811 110.165 591.897 107.211 595.802 107.211C599.706 107.211 601.747 110.165 601.747 113.77C601.747 117.376 599.706 120.373 595.802 120.373C591.897 120.373 589.811 117.376 589.811 113.77Z" fill="white"/>
<path d="M552.442 102.867H558.521V107.385H552.442V116.681C552.442 119.07 553.64 120.026 556.125 120.026C556.88 120.026 557.9 119.808 558.699 119.418V123.935C557.811 124.63 555.992 124.978 554.439 124.978C549.292 124.978 546.718 122.285 546.718 117.897V107.385H543.701L543.632 102.867H546.718L548.143 98.132L552.442 98.132V102.867Z" fill="white"/>
<path d="M540.331 108.688L541.573 103.953C540.109 102.91 537.713 102.346 535.406 102.346C529.415 102.346 525.91 105.169 525.91 109.253C525.91 112.597 527.774 114.205 530.702 115.334L534.341 116.724C536.027 117.376 536.604 117.723 536.604 118.679C536.604 119.939 535.494 120.634 533.32 120.634C531.323 120.634 528.883 120.156 526.398 118.375V123.414C527.818 124.717 530.791 125.325 533.276 125.325C538.689 125.325 542.195 122.675 542.195 118.288C542.195 115.117 540.42 113.553 537.181 112.293L533.631 110.903C531.945 110.252 531.545 109.817 531.545 108.949C531.545 107.776 532.655 107.081 534.962 107.081C536.559 107.081 538.645 107.515 540.331 108.688Z" fill="white"/>
<path d="M580.942 124.717V102.867H575.218V115.074C575.218 118.505 573.62 120.113 570.914 120.113C568.296 120.113 567.053 118.418 567.053 115.899V102.867H561.329V117.246C561.329 121.98 564.125 125.108 568.872 125.108C572.2 125.108 574.419 123.371 575.439 121.112L575.484 124.717H580.942Z" fill="white"/>
<path d="M611.926 124.717V102.867H617.65V124.717H611.926Z" fill="white"/>
<path d="M611.882 93.5274V99.3484H617.695V93.5274H611.882Z" fill="white"/>
<path fill-rule="evenodd" clip-rule="evenodd" d="M644.729 113.77C644.729 107.254 640.291 102.172 632.748 102.172C625.205 102.172 620.768 107.254 620.768 113.77C620.768 120.33 625.205 125.412 632.748 125.412C640.291 125.412 644.729 120.33 644.729 113.77ZM626.536 113.77C626.536 110.165 628.666 107.037 632.748 107.037C636.83 107.037 638.96 110.165 638.96 113.77C638.96 117.376 636.83 120.547 632.748 120.547C628.666 120.547 626.536 117.376 626.536 113.77Z" fill="white"/>
<path d="M617.287 71.0662H600.99V76.2367H608.351L599.139 85.3354L602.841 88.9915L612.053 79.8928V87.1635H617.287V71.0662Z" fill="white"/>
<path fill-rule="evenodd" clip-rule="evenodd" d="M594.379 81.2128V95.4177H589.01L588.966 91.7687C587.945 94.2882 585.993 95.7652 583.064 95.7652C578.672 95.7652 575.921 92.7678 575.921 89.2492C575.921 83.2545 581.334 82.4726 585.815 82.0816L588.744 81.821V81.3432C588.744 79.1277 586.57 77.9549 583.464 77.9549C581.604 77.9549 579.799 78.3353 578.05 79.0746V74.61C580.225 73.524 582.576 73.1765 584.751 73.1765C589.942 73.1765 594.379 75.5657 594.379 81.2128ZM581.644 88.5976C581.644 90.118 582.665 91.3343 584.928 91.3343C586.969 91.3343 588.744 89.6836 588.744 86.9903V85.4699L585.594 85.774C582.931 86.0347 581.644 86.8166 581.644 88.5976Z" fill="white"/>
<rect y="177" width="226.026" height="14.2424" fill="#4CB380"/>
<rect y="177" width="226.026" height="14.2424" fill="white" fill-opacity="0.2"/>
<rect x="226.026" y="177" width="226.026" height="14.2424" fill="#4CA7B3"/>
<rect x="452.053" y="177" width="223.894" height="14.2424" fill="#D86C2F"/>
<rect x="675.947" y="177" width="226.026" height="14.2424" fill="#D73683"/>
<rect x="901.974" y="177" width="226.026" height="14.2424" fill="#CE314D"/>
</g>
</g>
<defs>
<filter id="filter0_f_235_2" x="386.367" y="-22.7582" width="355.9" height="237.266" filterUnits="userSpaceOnUse" color-interpolation-filters="sRGB">
<feFlood flood-opacity="0" result="BackgroundImageFix"/>
<feBlend mode="normal" in="SourceGraphic" in2="BackgroundImageFix" result="shape"/>
<feGaussianBlur stdDeviation="36.3163" result="effect1_foregroundBlur_235_2"/>
</filter>
<clipPath id="clip0_235_2">
<rect width="1128" height="191" fill="white"/>
</clipPath>
<clipPath id="clip1_235_2">
<rect width="1128" height="192" fill="white"/>
</clipPath>
</defs>
</svg>
